<?xml version="1.0" encoding="UTF-8"?><svg id="Layer_2" xmlns="http://www.w3.org/2000/svg" xmlns:xlink="http://www.w3.org/1999/xlink" viewBox="0 0 48 48"><defs><style>.cls-1{fill:url(#linear-gradient);}.cls-1,.cls-2,.cls-3{stroke-width:0px;}.cls-4{fill:none;stroke:#fff;stroke-miterlimit:10;}.cls-2{fill:url(#linear-gradient-2);}.cls-3{fill:#fff;}</style><linearGradient id="linear-gradient" x1="7.03" y1="9.03" x2="40.97" y2="42.97" gradientTransform="translate(0 50) scale(1 -1)" gradientUnits="userSpaceOnUse"><stop offset="0" stop-color="#fff"/><stop offset="0" stop-color="#1979f1"/><stop offset="1" stop-color="#472f8b"/></linearGradient><linearGradient id="linear-gradient-2" x1="1.33" y1="2.66" x2="7.93" y2="9.27" gradientTransform="translate(0 50) scale(1 -1)" gradientUnits="userSpaceOnUse"><stop offset="0" stop-color="#fff"/><stop offset="0" stop-color="#1979f1"/><stop offset="1" stop-color="#1979f1"/></linearGradient></defs><g id="Layer_2-2"><g id="Layer_1-2"><circle class="cls-1" cx="24" cy="24" r="24"/><path class="cls-2" d="M3.71,36.82s-3.09,6.17-2.99,9.15c.04,1.09.81,1.84,2.05,1.8,3.23-.09,9.23-2.98,9.23-2.98"/><path class="cls-3" d="M15.44,26.63c.18,1.65.82,2.93,1.92,3.85,1.1.92,2.43,1.37,3.98,1.37,1.37,0,2.53-.28,3.46-.85.93-.56,1.75-1.27,2.45-2.13l3.94,2.98c-1.28,1.59-2.72,2.72-4.3,3.39-1.59.67-3.25,1.01-4.99,1.01-1.65,0-3.21-.28-4.67-.82-1.47-.55-2.73-1.33-3.8-2.33-1.07-1.01-1.92-2.22-2.54-3.64-.63-1.42-.94-3-.94-4.74s.31-3.32.94-4.74c.63-1.42,1.47-2.63,2.54-3.64,1.07-1.01,2.33-1.79,3.8-2.33,1.46-.55,3.02-.82,4.67-.82,1.53,0,2.92.27,4.19.8s2.35,1.3,3.25,2.31,1.6,2.25,2.11,3.73c.5,1.48.76,3.18.76,5.11v1.51H15.44v-.02ZM26.71,22.51c-.03-1.62-.53-2.89-1.51-3.82s-2.34-1.4-4.08-1.4c-1.65,0-2.95.47-3.91,1.42s-1.55,2.21-1.76,3.8h11.26Z"/><circle class="cls-3" cx="32.2" cy="11.1" r="1.9"/><circle class="cls-3" cx="36.79" cy="30.98" r="1.9"/><circle class="cls-3" cx="41.39" cy="22.11" r="1.9"/><circle class="cls-3" cx="36.79" cy="14.21" r="1.9"/><line class="cls-4" x1="31.49" y1="22.11" x2="39.55" y2="22.11"/><line class="cls-4" x1="37.65" y1="15.9" x2="40.49" y2="20.44"/><line class="cls-4" x1="30.66" y1="18.17" x2="35.52" y2="15.02"/><line class="cls-4" x1="31.49" y1="11.98" x2="28.01" y2="16.11"/><line class="cls-4" x1="36.79" y1="15.56" x2="36.79" y2="30.5"/><line class="cls-4" x1="37.65" y1="31.33" x2="36.11" y2="31.61"/><line class="cls-4" x1="40.25" y1="23.62" x2="37.53" y2="29.23"/><line class="cls-4" x1="31.49" y1="26.22" x2="36.79" y2="30.5"/><line class="cls-4" x1="33.31" y1="11.78" x2="36.4" y2="13.75"/></g></g></svg>